<svg width="40" height="48" viewBox="0 0 40 48" fill="none" xmlns="http://www.w3.org/2000/svg">
  <path opacity="0.3"
    d="M30.5791 10.0324C29.3819 10.0308 28.2343 9.58745 27.388 8.79964C26.5417 8.01183 26.0657 6.94386 26.0646 5.83V0H5.89162C4.32906 0 2.83052 0.577522 1.72562 1.60553C0.620727 2.63355 0 4.02785 0 5.48167V38.5265C0.00232039 39.9789 0.624065 41.3711 1.72871 42.3974C2.83335 43.4236 4.33058 44 5.89162 44H30.1084C31.6694 44 33.1666 43.4236 34.2713 42.3974C35.3759 41.3711 35.9977 39.9789 36 38.5265V10.0324H30.5791Z"
    fill="#38A169" />
  <path
    d="M24.8502 28H11.1498C9.96379 28 9 26.7579 9 25.2288V14.7692C9 13.2421 9.96379 12 11.1498 12H24.8502C26.0362 12 27 13.2421 27 14.7692V25.2229C27 26.752 26.0362 28 24.8502 28ZM11.1498 13.4229C10.5708 13.4229 10.1002 14.0283 10.1002 14.7751V25.2288C10.1002 25.9757 10.5708 26.583 11.1498 26.583H24.8502C25.4292 26.583 25.9017 25.9757 25.9017 25.2288V14.7692C25.9017 14.0224 25.4292 13.417 24.8502 13.417L11.1498 13.4229Z"
    fill="#38A169" />
  <path d="M26.5492 21.8838H9.44922V23.2956H26.5492V21.8838Z" fill="#38A169" />
  <path d="M26.5492 17.1748H9.44922V18.5866H26.5492V17.1748Z" fill="#38A169" />
  <path d="M22.0492 12.9414H20.6992V27.0591H22.0492V12.9414Z" fill="#38A169" />
  <path d="M15.2992 12.9414H13.9492V27.0591H15.2992V12.9414Z" fill="#38A169" />
  <path
    d="M36 10H30.5439C29.3389 9.99839 28.1838 9.55648 27.332 8.77122C26.4802 7.98595 26.0012 6.92143 26 5.81117V0L36 10Z"
    fill="#38A169" />
  <rect x="16" y="32" width="24" height="16" fill="#38A169" />
  <path
    d="M19.73 41.768H20.986V43H19.73V41.768ZM23.4286 40.008L21.5886 37.288H23.0446L24.1646 39.112L25.3246 37.288H26.7006L24.8686 40.016L26.8606 43H25.3646L24.1166 41.024L22.8446 43H21.4366L23.4286 40.008ZM27.3645 37.288H28.6205V41.944H31.4045V43H27.3645V37.288ZM32.9627 41.104C32.9627 41.296 32.9974 41.4587 33.0667 41.592C33.136 41.7253 33.2267 41.8347 33.3387 41.92C33.456 42 33.592 42.0613 33.7467 42.104C33.9014 42.1413 34.0614 42.16 34.2267 42.16C34.3387 42.16 34.4587 42.152 34.5867 42.136C34.7147 42.1147 34.8347 42.0773 34.9467 42.024C35.0587 41.9707 35.152 41.8987 35.2267 41.808C35.3014 41.712 35.3387 41.592 35.3387 41.448C35.3387 41.2933 35.288 41.168 35.1867 41.072C35.0907 40.976 34.9627 40.896 34.8027 40.832C34.6427 40.768 34.4614 40.712 34.2587 40.664C34.056 40.616 33.8507 40.5627 33.6427 40.504C33.4294 40.4507 33.2214 40.3867 33.0187 40.312C32.816 40.232 32.6347 40.1307 32.4747 40.008C32.3147 39.8853 32.184 39.7333 32.0827 39.552C31.9867 39.3653 31.9387 39.1413 31.9387 38.88C31.9387 38.5867 32 38.3333 32.1227 38.12C32.2507 37.9013 32.416 37.72 32.6187 37.576C32.8214 37.432 33.0507 37.3253 33.3067 37.256C33.5627 37.1867 33.8187 37.152 34.0747 37.152C34.3734 37.152 34.6587 37.1867 34.9307 37.256C35.208 37.32 35.4534 37.4267 35.6667 37.576C35.88 37.7253 36.048 37.9173 36.1707 38.152C36.2987 38.3813 36.3627 38.6613 36.3627 38.992H35.1467C35.136 38.8213 35.0987 38.68 35.0347 38.568C34.976 38.456 34.896 38.368 34.7947 38.304C34.6934 38.24 34.576 38.1947 34.4427 38.168C34.3147 38.1413 34.1734 38.128 34.0187 38.128C33.9174 38.128 33.816 38.1387 33.7147 38.16C33.6134 38.1813 33.52 38.2187 33.4347 38.272C33.3547 38.3253 33.288 38.392 33.2347 38.472C33.1814 38.552 33.1547 38.6533 33.1547 38.776C33.1547 38.888 33.176 38.9787 33.2187 39.048C33.2614 39.1173 33.344 39.1813 33.4667 39.24C33.5947 39.2987 33.768 39.3573 33.9867 39.416C34.2107 39.4747 34.5014 39.5493 34.8587 39.64C34.9654 39.6613 35.112 39.7013 35.2987 39.76C35.4907 39.8133 35.68 39.9013 35.8667 40.024C36.0534 40.1467 36.2134 40.312 36.3467 40.52C36.4854 40.7227 36.5547 40.984 36.5547 41.304C36.5547 41.5653 36.504 41.808 36.4027 42.032C36.3014 42.256 36.1494 42.4507 35.9467 42.616C35.7494 42.776 35.5014 42.9013 35.2027 42.992C34.9094 43.0827 34.568 43.128 34.1787 43.128C33.864 43.128 33.5574 43.088 33.2587 43.008C32.9654 42.9333 32.704 42.8133 32.4747 42.648C32.2507 42.4827 32.072 42.272 31.9387 42.016C31.8054 41.76 31.7414 41.456 31.7467 41.104H32.9627Z"
    fill="white" />
</svg>