<svg width="84" height="85" viewBox="0 0 84 85" fill="none" xmlns="http://www.w3.org/2000/svg">
    <path
        d="M17.2252 38.2558L12.5572 56.389C10.5776 51.9717 9.54694 47.1897 9.5315 42.3508L13.1174 28.7996C13.6012 26.9491 14.7087 26.0217 16.4741 26.0217C17.2078 26.0374 17.9218 26.2612 18.5328 26.6669C19.1437 27.0726 19.6263 27.6434 19.9242 28.3126L29.4681 48.6902L39.0163 28.3126C39.6783 26.8601 40.8284 26.0217 42.2882 26.0217C43.9856 26.0217 45.072 26.9491 45.56 28.7996L51.569 51.6037H73.1607C75.639 51.6037 77.0521 50.3333 77.0521 48.2964C77.0521 46.1325 75.639 44.9086 73.1607 44.9086H58.622C52.3032 44.9086 48.4118 41.0973 48.4118 35.6896C48.4118 30.3961 52.0358 26.4282 58.7111 26.4282H81.9577V33.3054H58.7111C56.7632 33.3054 55.5708 34.4107 55.5708 36.3925C55.5708 38.3744 56.8099 39.4839 58.7111 39.4839H73.1607C79.925 39.4839 83.5491 42.4821 83.5491 48.8766C83.5491 54.3817 80.1542 58.4894 73.1607 58.4894H48.8998V58.3836C48.1476 58.2095 47.4574 57.834 46.9033 57.2975C46.3492 56.761 45.9522 56.0838 45.7552 55.3388L41.3164 38.2474L32.74 56.3763C31.9464 58.0067 30.9279 58.9172 29.2475 58.9172C27.567 58.9172 26.5103 57.9897 25.7592 56.3763L17.2252 38.2558ZM78.2233 65.5234C78.2715 64.8568 78.0991 64.1929 77.7327 63.6335C77.3664 63.0741 76.8262 62.6501 76.1951 62.4266C75.564 62.203 74.8768 62.1923 74.239 62.396C73.6012 62.5997 73.0479 63.0065 72.6642 63.5542C71.9597 64.5028 71.2425 65.4387 70.4999 66.3661C65.5173 71.9635 58.9199 75.8839 51.6143 77.5884C44.3087 79.293 36.6534 78.6981 29.7003 75.8856C22.7471 73.073 16.8375 68.1807 12.7832 61.881C8.72901 55.5814 6.72921 48.1834 7.05864 40.7037C7.38806 33.224 10.0305 26.0296 14.623 20.1092C19.2154 14.1887 25.5324 9.8327 32.706 7.63969C39.8795 5.44668 47.5576 5.52429 54.6852 7.86187C61.8128 10.1994 68.0401 14.6823 72.5114 20.6943H72.5326C72.7277 21.0414 72.9893 21.3466 73.3026 21.5927C73.6158 21.8389 73.9746 22.021 74.3585 22.1287C74.7423 22.2365 75.1436 22.2677 75.5395 22.2207C75.9354 22.1737 76.3182 22.0493 76.6659 21.8547C77.0137 21.66 77.3196 21.3989 77.5662 21.0863C77.8129 20.7737 77.9954 20.4157 78.1033 20.0326C78.2113 19.6496 78.2426 19.2492 78.1955 18.8541C78.1484 18.459 78.0237 18.077 77.8287 17.73C77.7023 17.5143 77.5514 17.314 77.3789 17.1329C72.0702 9.97666 64.6331 4.67547 56.1278 1.9851C47.6224 -0.705264 38.4831 -0.647478 30.0126 2.15022C21.5421 4.94793 14.1729 10.3427 8.95555 17.5655C3.73821 24.7884 0.939045 33.4705 0.957118 42.3741C0.975192 51.2778 3.80958 59.9485 9.05621 67.1502C14.3028 74.3518 21.6939 79.7168 30.1756 82.4802C38.6574 85.2437 47.797 85.2645 56.2913 82.5398C64.7856 79.8151 72.2012 74.4838 77.4807 67.3062C77.9176 66.8094 78.1786 66.1829 78.2233 65.5234Z"
        fill="url(#paint0_linear_382_15114)" />
    <defs>
        <linearGradient id="paint0_linear_382_15114" x1="83.5491" y1="42.2873" x2="1.49829" y2="42.2873"
            gradientUnits="userSpaceOnUse">
            <stop stop-color="#DC272E" />
            <stop offset="0.08" stop-color="#D72730" />
            <stop offset="0.17" stop-color="#CA2835" />
            <stop offset="0.27" stop-color="#B4293D" />
            <stop offset="0.37" stop-color="#952B48" />
            <stop offset="0.47" stop-color="#6D2E57" />
            <stop offset="0.57" stop-color="#3D3168" />
            <stop offset="0.61" stop-color="#283270" />
        </linearGradient>
    </defs>
</svg>