<svg width="76" height="32" viewBox="0 0 76 32" fill="none" xmlns="http://www.w3.org/2000/svg">
  <path
    d="M30.25 19.4411V13.5689H31.0569V14.181H31.0808C31.5082 13.7292 32.0415 13.4277 32.6467 13.4277C33.7259 13.4277 34.3436 13.8162 34.6752 14.4508H34.6991C35.0672 13.8749 35.9208 13.4277 36.657 13.4277C38.0565 13.4277 39.0503 14.4983 39.0503 15.85V19.4467H38.2457V15.8444C38.2457 14.8212 37.6177 14.1505 36.526 14.1505C35.9562 14.1505 35.2804 14.5141 35.0547 15.0313V19.4354H34.2478V15.2097C34.2478 14.5626 33.6074 14.1516 32.6523 14.1516C32.3295 14.1487 32.0117 14.2309 31.7314 14.3896C31.451 14.5483 31.2183 14.7779 31.0569 15.055V19.4399L30.25 19.4411Z"
    fill="white" />
  <path
    d="M45.3001 19.423C45.2182 19.4412 45.1344 19.4492 45.0505 19.4467C44.6003 19.4467 44.173 19.2706 43.9713 18.8121H43.9473C43.3661 19.2638 42.6778 19.5879 41.8595 19.5879C40.7803 19.5879 39.5586 19.1994 39.5586 17.9775C39.5586 16.2611 41.496 15.9087 43.7342 15.8613V15.5564C43.7342 14.6157 43.0504 14.1572 42.239 14.1572C41.4276 14.1572 40.7917 14.4271 40.4361 14.7795L39.9142 14.2623C40.3882 13.7925 41.2304 13.4277 42.239 13.4277C43.5086 13.4277 44.5411 14.1335 44.5411 15.5564V18.1063C44.5411 18.558 44.7895 18.7183 45.0505 18.7183C45.0858 18.7183 45.1645 18.7059 45.1645 18.7059L45.3001 19.423ZM43.7342 18.095V16.5614C41.9313 16.6077 40.3882 16.8663 40.3882 17.9719C40.3882 18.6416 41.1712 18.8539 41.8595 18.8539C42.5832 18.8584 43.2237 18.5128 43.7342 18.0893V18.095Z"
    fill="white" />
  <path d="M45.7148 11.2129H46.5217V12.2123H45.7148V11.2129ZM45.7148 13.564H46.5217V19.4418H45.7148V13.564Z"
    fill="white" />
  <path
    d="M47.5762 19.4411V13.5689H48.3819V14.2397H48.4058C48.9476 13.7364 49.6567 13.4475 50.399 13.4277C52.2133 13.4277 53.1034 14.3921 53.1034 15.85V19.4467H52.2965V15.8444C52.2965 14.8212 51.6561 14.1505 50.399 14.1505C49.4976 14.1505 48.8811 14.4791 48.3819 15.1849V19.4399L47.5762 19.4411Z"
    fill="white" />
  <path
    d="M53.3545 14.2697V13.5639H54.232V11.4951H55.0446V13.5639H56.0999V14.2697H55.0446V18.1092C55.0446 18.7202 55.4355 18.7552 55.7557 18.7552C55.9087 18.753 56.0613 18.7375 56.2116 18.7089L56.3187 19.426C56.134 19.4573 55.9475 19.4769 55.7603 19.4847C55.0845 19.4847 54.2423 19.4259 54.2423 18.1092V14.2697H53.3545Z"
    fill="white" />
  <path
    d="M59.9617 14.5739C59.9617 14.5739 59.5583 14.1515 58.7081 14.1515C57.9845 14.1515 57.4147 14.5276 57.4147 15.0549C57.4147 15.667 58.0677 15.8895 58.7081 16.1131C59.6449 16.4304 60.6649 16.8302 60.6649 17.9707C60.6649 18.8527 59.9412 19.581 58.6135 19.581C58.2133 19.5865 57.816 19.5135 57.4444 19.3662C57.0728 19.219 56.7342 19.0003 56.4482 18.7228L56.9941 18.2406C56.9941 18.2406 57.5389 18.8527 58.6192 18.8527C59.4022 18.8527 59.8409 18.4529 59.8409 17.9707C59.8409 17.2649 59.1412 17.03 58.4529 16.7951C57.5149 16.4778 56.5907 16.1605 56.5907 15.0549C56.5907 14.103 57.5149 13.4209 58.7138 13.4209C59.8877 13.4209 60.5053 14.068 60.5053 14.068L59.9617 14.5739Z"
    fill="white" />
  <path
    d="M61.5269 13.5635L63.7572 18.5006H63.7811L66.0353 13.5635H66.8969L63.6706 20.5819C63.2307 21.5451 62.8159 21.8399 61.6534 21.8399C61.3902 21.8409 61.1276 21.8133 60.8705 21.7574L61.0369 21.0799C61.2402 21.1179 61.4465 21.1376 61.6534 21.1386C62.3053 21.1386 62.6027 21.0087 62.9344 20.3041L63.3378 19.4345L60.6562 13.568L61.5269 13.5635Z"
    fill="white" />
  <path
    d="M70.2459 14.5739C70.2459 14.5739 69.8425 14.1515 68.9923 14.1515C68.2687 14.1515 67.6988 14.5276 67.6988 15.0549C67.6988 15.667 68.3518 15.8895 68.9923 16.1131C69.9291 16.4304 70.9491 16.8302 70.9491 17.9707C70.9491 18.8527 70.2254 19.581 68.8977 19.581C68.4975 19.5866 68.1001 19.5136 67.7285 19.3663C67.3569 19.219 67.0184 19.0003 66.7324 18.7228L67.2772 18.2406C67.2772 18.2406 67.8231 18.8527 68.9023 18.8527C69.6852 18.8527 70.124 18.4529 70.124 17.9707C70.124 17.2649 69.4254 17.03 68.737 16.7951C67.7991 16.4778 66.8737 16.1605 66.8737 15.0549C66.8737 14.103 67.7991 13.4209 68.998 13.4209C70.1718 13.4209 70.7895 14.068 70.7895 14.068L70.2459 14.5739Z"
    fill="white" />
  <path
    d="M9.99677 14.2012L8.74317 19.0367C8.21155 17.8587 7.93476 16.5835 7.93061 15.2932L8.89361 11.6795C9.02352 11.186 9.32097 10.9387 9.79506 10.9387C9.99209 10.9429 10.1838 11.0026 10.3479 11.1108C10.512 11.219 10.6416 11.3712 10.7216 11.5496L13.2846 16.9837L15.8488 11.5496C16.0266 11.1623 16.3354 10.9387 16.7275 10.9387C17.1833 10.9387 17.4751 11.186 17.6061 11.6795L19.2198 17.7606H25.0183C25.6839 17.7606 26.0634 17.4218 26.0634 16.8787C26.0634 16.3016 25.6839 15.9752 25.0183 15.9752H21.1139C19.417 15.9752 18.372 14.9589 18.372 13.5168C18.372 12.1052 19.3452 11.0471 21.1378 11.0471H27.3808V12.8811H21.1378C20.6148 12.8811 20.2945 13.1758 20.2945 13.7043C20.2945 14.2328 20.6273 14.5287 21.1378 14.5287H25.0183C26.8349 14.5287 27.8081 15.3282 27.8081 17.0334C27.8081 18.5014 26.8964 19.5968 25.0183 19.5968H18.503V19.5686C18.301 19.5221 18.1157 19.422 17.9668 19.2789C17.818 19.1359 17.7114 18.9553 17.6585 18.7566L16.4665 14.1989L14.1633 19.0333C13.9502 19.4681 13.6767 19.7109 13.2254 19.7109C12.7741 19.7109 12.4903 19.4635 12.2886 19.0333L9.99677 14.2012ZM26.3779 21.4725C26.3908 21.2948 26.3445 21.1177 26.2461 20.9685C26.1477 20.8194 26.0027 20.7063 25.8332 20.6467C25.6637 20.5871 25.4792 20.5842 25.3079 20.6385C25.1366 20.6929 24.988 20.8014 24.885 20.9474C24.6958 21.2004 24.5032 21.4499 24.3038 21.6972C22.9657 23.1899 21.1939 24.2353 19.232 24.6899C17.2701 25.1444 15.2142 24.9858 13.347 24.2358C11.4797 23.4857 9.89264 22.1811 8.80387 20.5012C7.7151 18.8213 7.17806 16.8485 7.26652 14.8539C7.35499 12.8593 8.06463 10.9408 9.29793 9.36206C10.5312 7.78327 12.2277 6.62166 14.1541 6.03686C16.0806 5.45206 18.1426 5.47275 20.0567 6.09611C21.9708 6.71946 23.6432 7.91488 24.8439 9.5181H24.8496C24.902 9.61064 24.9723 9.69204 25.0564 9.75768C25.1405 9.82331 25.2369 9.87187 25.34 9.90061C25.443 9.92934 25.5508 9.93767 25.6571 9.92513C25.7635 9.91259 25.8663 9.87942 25.9596 9.82752C26.053 9.77561 26.1352 9.70599 26.2014 9.62263C26.2677 9.53926 26.3167 9.44378 26.3457 9.34165C26.3747 9.23951 26.3831 9.13272 26.3704 9.02736C26.3578 8.92201 26.3243 8.82015 26.2719 8.72761C26.238 8.6701 26.1974 8.61667 26.1511 8.56839C24.7255 6.66005 22.7282 5.2464 20.4441 4.52897C18.16 3.81154 15.7056 3.82695 13.4308 4.573C11.1561 5.31906 9.17707 6.75767 7.77594 8.68375C6.37482 10.6098 5.6231 12.9251 5.62795 15.2994C5.63281 17.6737 6.39399 19.9859 7.80297 21.9063C9.21196 23.8268 11.1968 25.2574 13.4746 25.9943C15.7524 26.7313 18.2068 26.7368 20.488 26.0102C22.7692 25.2836 24.7606 23.862 26.1785 21.9479C26.2958 21.8154 26.3659 21.6484 26.3779 21.4725Z"
    fill="white" />
</svg>