<svg width="283" height="120" viewBox="0 0 283 120" fill="none" xmlns="http://www.w3.org/2000/svg">
    <path
        d="M112.643 72.9055V50.8848H115.648V53.18H115.737C117.328 51.4861 119.314 50.3555 121.567 50.3555C125.586 50.3555 127.886 51.8122 129.121 54.1921H129.21C130.581 52.0324 133.759 50.3555 136.501 50.3555C141.712 50.3555 145.412 54.37 145.412 59.439V72.9267H142.416V59.4178C142.416 55.5811 140.078 53.0657 136.013 53.0657C133.891 53.0657 131.375 54.4293 130.534 56.3688V72.8843H127.53V57.0379C127.53 54.6114 125.145 53.0699 121.589 53.0699C120.386 53.0592 119.203 53.3672 118.159 53.9624C117.115 54.5576 116.249 55.4187 115.648 56.4577V72.9013L112.643 72.9055Z"
        fill="#002169" />
    <path
        d="M168.685 72.8377C168.38 72.9061 168.068 72.936 167.755 72.9267C166.079 72.9267 164.488 72.266 163.737 70.5467H163.647C161.483 72.2406 158.92 73.456 155.873 73.456C151.854 73.456 147.305 71.9993 147.305 67.4173C147.305 60.9804 154.519 59.6592 162.854 59.4813V58.338C162.854 54.8104 160.308 53.0911 157.286 53.0911C154.265 53.0911 151.897 54.1032 150.573 55.4245L148.629 53.4849C150.395 51.7233 153.531 50.3555 157.286 50.3555C162.014 50.3555 165.858 53.0022 165.858 58.338V67.9C165.858 69.5939 166.783 70.1952 167.755 70.1952C167.887 70.1952 168.18 70.1487 168.18 70.1487L168.685 72.8377ZM162.854 67.8577V62.1069C156.14 62.2805 150.395 63.2503 150.395 67.3961C150.395 69.9073 153.31 70.7034 155.873 70.7034C158.568 70.7204 160.953 69.4245 162.854 67.8365V67.8577Z"
        fill="#002169" />
    <path d="M170.229 42.0469H173.234V45.7946H170.229V42.0469ZM170.229 50.8636H173.234V72.9055H170.229V50.8636Z"
        fill="#002169" />
    <path
        d="M177.159 72.9055V50.8848H180.159V53.4002H180.249C182.266 51.5131 184.907 50.4297 187.671 50.3555C194.427 50.3555 197.741 53.9719 197.741 59.439V72.9267H194.736V59.4178C194.736 55.5811 192.351 53.0657 187.671 53.0657C184.314 53.0657 182.018 54.298 180.159 56.9447V72.9013L177.159 72.9055Z"
        fill="#002169" />
    <path
        d="M198.675 53.5102V50.8635H201.942V43.1055H204.968V50.8635H208.898V53.5102H204.968V67.9084C204.968 70.1994 206.424 70.3307 207.616 70.3307C208.186 70.3225 208.754 70.2644 209.314 70.157L209.713 72.8461C209.025 72.9635 208.33 73.0371 207.633 73.0663C205.117 73.0663 201.981 72.8461 201.981 67.9084V53.5102H198.675Z"
        fill="#002169" />
    <path
        d="M223.279 54.6538C223.279 54.6538 221.777 53.07 218.611 53.07C215.917 53.07 213.795 54.4801 213.795 56.4578C213.795 58.753 216.227 59.5872 218.611 60.4257C222.1 61.6157 225.898 63.1148 225.898 67.3919C225.898 70.6992 223.203 73.4306 218.259 73.4306C216.769 73.4512 215.289 73.1775 213.906 72.6251C212.522 72.0728 211.261 71.2527 210.196 70.2122L212.229 68.404C212.229 68.404 214.257 70.6992 218.28 70.6992C221.196 70.6992 222.83 69.2001 222.83 67.3919C222.83 64.7452 220.224 63.8643 217.661 62.9835C214.168 61.7935 210.727 60.6036 210.727 56.4578C210.727 52.8879 214.168 50.3301 218.633 50.3301C223.004 50.3301 225.304 52.7566 225.304 52.7566L223.279 54.6538Z"
        fill="#EA0029" />
    <path
        d="M229.106 50.8633L237.411 69.3776H237.5L245.894 50.8633H249.102L237.088 77.1822C235.45 80.7945 233.905 81.8997 229.577 81.8997C228.597 81.9037 227.619 81.8 226.662 81.5906L227.281 79.0497C228.038 79.1925 228.807 79.2662 229.577 79.27C232.004 79.27 233.112 78.783 234.347 76.1405L235.849 72.8797L225.864 50.8802L229.106 50.8633Z"
        fill="#EA0029" />
    <path
        d="M261.574 54.6538C261.574 54.6538 260.072 53.07 256.906 53.07C254.211 53.07 252.089 54.4801 252.089 56.4578C252.089 58.753 254.521 59.5872 256.906 60.4257C260.394 61.6157 264.192 63.1148 264.192 67.3919C264.192 70.6992 261.497 73.4306 256.554 73.4306C255.063 73.4515 253.584 73.1778 252.2 72.6254C250.816 72.0731 249.555 71.2529 248.491 70.2122L250.519 68.404C250.519 68.404 252.552 70.6992 256.571 70.6992C259.486 70.6992 261.12 69.2001 261.12 67.3919C261.12 64.7452 258.518 63.8643 255.955 62.9835C252.463 61.7935 249.017 60.6036 249.017 56.4578C249.017 52.8879 252.463 50.3301 256.927 50.3301C261.298 50.3301 263.598 52.7566 263.598 52.7566L261.574 54.6538Z"
        fill="#EA0029" />
    <path
        d="M37.2252 53.2558L32.5572 71.389C30.5776 66.9717 29.5469 62.1897 29.5315 57.3508L33.1174 43.7996C33.6012 41.9491 34.7087 41.0217 36.4741 41.0217C37.2078 41.0374 37.9218 41.2612 38.5328 41.6669C39.1437 42.0726 39.6263 42.6434 39.9242 43.3126L49.4681 63.6902L59.0163 43.3126C59.6783 41.8601 60.8284 41.0217 62.2882 41.0217C63.9856 41.0217 65.072 41.9491 65.56 43.7996L71.569 66.6037H93.1607C95.639 66.6037 97.0521 65.3333 97.0521 63.2964C97.0521 61.1325 95.639 59.9086 93.1607 59.9086H78.622C72.3032 59.9086 68.4118 56.0973 68.4118 50.6896C68.4118 45.3961 72.0358 41.4282 78.7111 41.4282H101.958V48.3054H78.7111C76.7632 48.3054 75.5708 49.4107 75.5708 51.3925C75.5708 53.3744 76.8099 54.4839 78.7111 54.4839H93.1607C99.925 54.4839 103.549 57.4821 103.549 63.8766C103.549 69.3817 100.154 73.4894 93.1607 73.4894H68.8998V73.3836C68.1476 73.2095 67.4574 72.834 66.9033 72.2975C66.3492 71.761 65.9522 71.0838 65.7552 70.3388L61.3164 53.2474L52.74 71.3763C51.9464 73.0067 50.9279 73.9172 49.2475 73.9172C47.567 73.9172 46.5103 72.9897 45.7592 71.3763L37.2252 53.2558ZM98.2233 80.5234C98.2715 79.8568 98.0991 79.1929 97.7327 78.6335C97.3664 78.0741 96.8262 77.6501 96.1951 77.4266C95.564 77.203 94.8768 77.1923 94.239 77.396C93.6012 77.5997 93.0479 78.0065 92.6642 78.5542C91.9597 79.5028 91.2425 80.4387 90.4999 81.3661C85.5173 86.9635 78.9199 90.8839 71.6143 92.5884C64.3087 94.293 56.6534 93.6981 49.7003 90.8856C42.7471 88.073 36.8375 83.1807 32.7832 76.881C28.729 70.5814 26.7292 63.1834 27.0586 55.7037C27.3881 48.224 30.0305 41.0296 34.623 35.1092C39.2154 29.1887 45.5324 24.8327 52.706 22.6397C59.8795 20.4467 67.5576 20.5243 74.6852 22.8619C81.8128 25.1994 88.0401 29.6823 92.5114 35.6943H92.5326C92.7277 36.0414 92.9893 36.3466 93.3026 36.5927C93.6158 36.8389 93.9746 37.021 94.3585 37.1287C94.7423 37.2365 95.1436 37.2677 95.5395 37.2207C95.9354 37.1737 96.3182 37.0493 96.6659 36.8547C97.0137 36.66 97.3196 36.3989 97.5662 36.0863C97.8129 35.7737 97.9954 35.4157 98.1033 35.0326C98.2113 34.6496 98.2426 34.2492 98.1955 33.8541C98.1484 33.459 98.0237 33.077 97.8287 32.73C97.7023 32.5143 97.5514 32.314 97.3789 32.1329C92.0702 24.9767 84.6331 19.6755 76.1278 16.9851C67.6224 14.2947 58.4831 14.3525 50.0126 17.1502C41.5421 19.9479 34.1729 25.3427 28.9556 32.5655C23.7382 39.7884 20.939 48.4705 20.9571 57.3741C20.9752 66.2778 23.8096 74.9485 29.0562 82.1502C34.3028 89.3518 41.6939 94.7168 50.1756 97.4802C58.6574 100.244 67.797 100.265 76.2913 97.5398C84.7856 94.8151 92.2012 89.4838 97.4807 82.3062C97.9176 81.8094 98.1786 81.1829 98.2233 80.5234Z"
        fill="url(#paint0_linear_382_15105)" />
    <defs>
        <linearGradient id="paint0_linear_382_15105" x1="103.549" y1="57.2873" x2="21.4983" y2="57.2873"
            gradientUnits="userSpaceOnUse">
            <stop stop-color="#DC272E" />
            <stop offset="0.08" stop-color="#D72730" />
            <stop offset="0.17" stop-color="#CA2835" />
            <stop offset="0.27" stop-color="#B4293D" />
            <stop offset="0.37" stop-color="#952B48" />
            <stop offset="0.47" stop-color="#6D2E57" />
            <stop offset="0.57" stop-color="#3D3168" />
            <stop offset="0.61" stop-color="#283270" />
        </linearGradient>
    </defs>
</svg>