<svg width="40" height="48" viewBox="0 0 40 48" fill="none" xmlns="http://www.w3.org/2000/svg">
  <g opacity="0.3">
    <path opacity="0.3"
      d="M30.5791 10.0324C29.3819 10.0308 28.2343 9.58745 27.388 8.79964C26.5417 8.01183 26.0657 6.94386 26.0646 5.83V0H5.89162C4.32906 0 2.83052 0.577522 1.72562 1.60553C0.620727 2.63355 0 4.02785 0 5.48167V38.5265C0.00232039 39.9789 0.624065 41.3711 1.72871 42.3974C2.83335 43.4236 4.33058 44 5.89162 44H30.1084C31.6694 44 33.1666 43.4236 34.2713 42.3974C35.3759 41.3711 35.9977 39.9789 36 38.5265V10.0324H30.5791Z"
      fill="#EA0029" />
  </g>
  <path
    d="M36 10H30.5439C29.3389 9.99839 28.1838 9.55648 27.332 8.77122C26.4802 7.98595 26.0012 6.92143 26 5.81117V0L36 10Z"
    fill="#EA0029" />
  <path
    d="M17.9992 28C17.469 27.9992 16.9607 27.7881 16.5859 27.4132C16.2111 27.0383 16.0004 26.53 16 26V24H20V26C19.9996 26.5303 19.7886 27.0388 19.4135 27.4138C19.0384 27.7887 18.5297 27.9996 17.9992 28ZM17.0233 25.0229V26C17.0233 26.2589 17.126 26.5072 17.309 26.6904C17.492 26.8736 17.7402 26.9767 17.9992 26.9771C18.2583 26.9767 18.5067 26.8737 18.69 26.6905C18.8732 26.5073 18.9763 26.259 18.9767 26V25.0229H17.0233Z"
    fill="#EA0029" />
  <path d="M16 24H18V22H16V24Z" fill="#EA0029" />
  <path d="M18 22H20V20H18V22Z" fill="#EA0029" />
  <path d="M16 20H18V18H16V20Z" fill="#EA0029" />
  <path d="M18 18H20V16H18V18Z" fill="#EA0029" />
  <rect x="16" y="32" width="24" height="16" fill="#EA0029" />
  <path
    d="M20.9253 41.768H22.1813V43H20.9253V41.768ZM22.8559 42.008L25.9199 38.344H23.0959V37.288H27.5919V38.28L24.5279 41.944H27.6719V43H22.8559V42.008ZM28.4114 37.288H29.6674V43H28.4114V37.288ZM32.0268 39.976H33.0028C33.1468 39.976 33.2854 39.9653 33.4188 39.944C33.5521 39.9227 33.6694 39.8827 33.7708 39.824C33.8721 39.76 33.9521 39.672 34.0108 39.56C34.0748 39.448 34.1068 39.3013 34.1068 39.12C34.1068 38.9387 34.0748 38.792 34.0108 38.68C33.9521 38.568 33.8721 38.4827 33.7708 38.424C33.6694 38.36 33.5521 38.3173 33.4188 38.296C33.2854 38.2747 33.1468 38.264 33.0028 38.264H32.0268V39.976ZM30.7708 37.288H33.3468C33.7041 37.288 34.0081 37.3413 34.2587 37.448C34.5094 37.5493 34.7121 37.6853 34.8668 37.856C35.0268 38.0267 35.1414 38.2213 35.2108 38.44C35.2854 38.6587 35.3228 38.8853 35.3228 39.12C35.3228 39.3493 35.2854 39.576 35.2108 39.8C35.1414 40.0187 35.0268 40.2133 34.8668 40.384C34.7121 40.5547 34.5094 40.6933 34.2587 40.8C34.0081 40.9013 33.7041 40.952 33.3468 40.952H32.0268V43H30.7708V37.288Z"
    fill="white" />
</svg>